<svg id="chinchilla" data-name="chinchilla" xmlns="http://www.w3.org/2000/svg" viewBox="0 0 145 85"><path d="M3.56,52.33A28.21,28.21,0,0,0,31.72,80.55H98.37a6.47,6.47,0,0,0-6.47-6.47h-.34l2-4.21a21.75,21.75,0,0,0-3-23.8h4A25.39,25.39,0,0,1,97.3,69.58l9.3,11h11.26v-.09a6.37,6.37,0,0,0-5.5-6.31l14-19.46h7.19a7.88,7.88,0,0,0,7.69-9.56L139,35.1a29.86,29.86,0,0,0-23.13-22.85l2.59,11.84h-3.31l-3.37-15.4a7.18,7.18,0,0,0-4.77-5.3A6.91,6.91,0,0,0,105.14,3a7.24,7.24,0,0,0-7.2,5.1,7.42,7.42,0,0,0,.63,5.67l5.5,10.29h-3.66l-2.06-3.85H87.59A49.56,49.56,0,0,0,38,69.74v2.11h0a19.53,19.53,0,0,1-5-38.38l-.26-.26a15.64,15.64,0,0,0-22.1.5c-.31.33-.61.67-.9,1A28,28,0,0,0,3.56,52.33Zm119.8-18.85a3.3,3.3,0,0,1,5.56,3.37,3.3,3.3,0,0,1-5.56-3.37Z"/></svg>
