<svg xmlns="http://www.w3.org/2000/svg" viewBox="0 0 32 40" x="0px" y="0px"><title>07 menu</title><g data-name="07 menu"><path d="M3,7A1,1,0,0,1,4,6H22a1,1,0,0,1,0,2H4A1,1,0,0,1,3,7Zm25,5H4a1,1,0,0,0,0,2H28a1,1,0,0,0,0-2Zm0,6H4a1,1,0,0,0,0,2H28a1,1,0,0,0,0-2Zm0,6H4a1,1,0,0,0,0,2H28a1,1,0,0,0,0-2ZM28,8a1,1,0,1,0-1-1A1,1,0,0,0,28,8ZM25,8a1,1,0,1,0-1-1A1,1,0,0,0,25,8Z"/></g><text x="0" y="47" fill="#000000" font-size="5px" font-weight="bold" font-family="'Helvetica Neue', Helvetica, Arial-Unicode, Arial, Sans-serif">Created by Stockes Design</text><text x="0" y="52" fill="#000000" font-size="5px" font-weight="bold" font-family="'Helvetica Neue', Helvetica, Arial-Unicode, Arial, Sans-serif">from the Noun Project</text></svg>
