<svg id="Layer_1" data-name="Layer 1" xmlns="http://www.w3.org/2000/svg" viewBox="0 0 145 85"><defs><style>.cls-1{font-size:15.01px;fill:#a1a6b4;font-family:ProximaNova-Regular, Proxima Nova;}</style></defs><path d="M3.56,52.33A28.21,28.21,0,0,0,31.72,80.55H98.37a6.47,6.47,0,0,0-6.47-6.47h-.34l2-4.21a21.74,21.74,0,0,0-3-23.8h4.05A25.39,25.39,0,0,1,97.3,69.58l9.3,11h11.26v-.09a6.37,6.37,0,0,0-5.5-6.31l14-19.46h7.19a7.88,7.88,0,0,0,7.69-9.56l-2.2-10.06a29.86,29.86,0,0,0-23.13-22.85l2.59,11.84h-3.31l-3.37-15.4a7.18,7.18,0,0,0-4.77-5.3A6.72,6.72,0,0,0,105.14,3a7.24,7.24,0,0,0-7.2,5.1,7.44,7.44,0,0,0,.63,5.67l5.5,10.29h-3.66l-2.06-3.85H87.59A49.56,49.56,0,0,0,38,69.77v2.08h0A19.53,19.53,0,0,1,33,33.47l-.26-.26a15.63,15.63,0,0,0-23,1.53A28,28,0,0,0,3.56,52.33Zm119.8-18.85a3.3,3.3,0,0,1,5.56,3.37,3.3,3.3,0,0,1-5.56-3.37Z"/><text class="cls-1" transform="translate(37.29 59.9) rotate(-75.81)">L</text><text class="cls-1" transform="translate(39.19 52.76) rotate(-70.27)">i</text><text class="cls-1" transform="matrix(0.4, -0.92, 0.92, 0.4, 40.25, 49.74)">t</text><text class="cls-1" transform="translate(41.94 45.84) rotate(-62.11)">t</text><text class="cls-1" transform="matrix(0.53, -0.85, 0.85, 0.53, 43.93, 42.11)">l</text><text class="cls-1" transform="translate(45.44 39.38) rotate(-52.22)">e</text><text class="cls-1" transform="translate(50.52 33.01) rotate(-45.53)"> </text><text class="cls-1" transform="matrix(0.78, -0.62, 0.62, 0.78, 52.9, 30.36)">F</text><text class="cls-1" transform="matrix(0.86, -0.52, 0.52, 0.86, 59.21, 25.52)">l</text><text class="cls-1" transform="matrix(0.92, -0.39, 0.39, 0.92, 61.69, 23.77)">o</text><text class="cls-1" transform="translate(69.13 20.59) rotate(-11.49)">o</text><text class="cls-1" transform="translate(77.19 19.09) rotate(-3.28)">f</text><text class="cls-1" transform="translate(81.14 18.76) rotate(3.72)">s</text></svg>